<svg xmlns="http://www.w3.org/2000/svg" width="26.395" height="26.395" viewBox="0 0 26.395 26.395">
  <path id="border-all" d="M20.633,0H4.762A4.769,4.769,0,0,0,0,4.762V20.633a4.769,4.769,0,0,0,4.762,4.762H20.633a4.769,4.769,0,0,0,4.762-4.762V4.762A4.769,4.769,0,0,0,20.633,0Zm3.7,4.762v7.407H13.226V1.058h7.407A3.707,3.707,0,0,1,24.337,4.762ZM4.762,1.058h7.407v11.11H1.058V4.762A3.707,3.707,0,0,1,4.762,1.058Zm-3.7,19.575V13.226h11.11v11.11H4.762A3.707,3.707,0,0,1,1.058,20.633Zm19.575,3.7H13.226V13.226h11.11v7.407A3.707,3.707,0,0,1,20.633,24.337Z" transform="translate(0.5 0.5)" fill="#fff" stroke="#fff" stroke-width="1"/>
</svg>
