<svg id="svgexport-6_-_2022-11-08T132123.061" data-name="svgexport-6 - 2022-11-08T132123.061" xmlns="http://www.w3.org/2000/svg" width="66.908" height="43.795" viewBox="0 0 66.908 43.795">
  <g id="Group_141" data-name="Group 141" transform="translate(0 0)">
    <path id="Path_902" data-name="Path 902" d="M62.763,22.445a2,2,0,0,0-.137-.153l-2.345-2.263c1.945-.441,4.038-2.07,4.038-3.742,0-1.947-2.7-2.638-5.009-2.638-2.412,0-2.692,1.652-2.72,2.82l-6.05-5.832a8.538,8.538,0,0,0-5.3-2.174H21.669a8.54,8.54,0,0,0-5.3,2.174L10.32,16.469c-.031-1.168-.311-2.82-2.72-2.82-2.309,0-5.01.691-5.01,2.638,0,1.671,2.095,3.3,4.039,3.742L4.284,22.292c-.053.051-.09.1-.137.153A13.134,13.134,0,0,0,0,31.451v8.574A7.821,7.821,0,0,0,2.147,45.4v3.325a3.586,3.586,0,0,0,3.63,3.53h4.389a3.583,3.583,0,0,0,3.628-3.53v-.851H53.116v.851a3.582,3.582,0,0,0,3.63,3.53h4.388a3.584,3.584,0,0,0,3.628-3.53V45.4a7.815,7.815,0,0,0,2.147-5.378V31.451A13.119,13.119,0,0,0,62.763,22.445ZM18.59,13.229a6.049,6.049,0,0,1,3.079-1.247H45.242a6.049,6.049,0,0,1,3.079,1.247l7.933,7.688h-45.6ZM2.722,30.154a3.761,3.761,0,0,1,3.693-3.825c2.039,0,8.7,3.911,8.7,6.022s-6.663,1.622-8.7,1.622A3.755,3.755,0,0,1,2.722,30.154ZM13.8,44.118H12.389l-4.172.007a7.932,7.932,0,0,1-2.552-1.233,3.62,3.62,0,0,1-.691-.7,2.746,2.746,0,0,1-.388-.709,3.226,3.226,0,0,1,.553-2.814h7.12l4.747,5.449-3.21,0Zm29.9,0H23.218a3.869,3.869,0,0,1-3.867-3.866H47.56A3.867,3.867,0,0,1,43.693,44.121Zm.9-6.5H22.319c-2.321,0-4.206-2.862-4.206-6.392H48.8C48.8,34.756,46.913,37.617,44.592,37.617Zm17.735,3.867a2.765,2.765,0,0,1-.389.707,3.543,3.543,0,0,1-.691.7,7.862,7.862,0,0,1-2.552,1.233l-4.172-.007H49.9l4.749-5.449h7.119A3.219,3.219,0,0,1,62.326,41.484ZM60.5,33.973c-2.037,0-8.7.486-8.7-1.622s6.663-6.022,8.7-6.022a3.825,3.825,0,0,1,0,7.645Z" transform="translate(0 -8.463)" fill="#006a3e"/>
  </g>
</svg>
