<svg xmlns="http://www.w3.org/2000/svg" width="24.661" height="24.606" viewBox="0 0 24.661 24.606">
  <path id="holding-hand-delivery" d="M20.5,5A2.5,2.5,0,1,0,18,2.5,2.5,2.5,0,0,0,20.5,5Zm0-4A1.5,1.5,0,1,1,19,2.5,1.5,1.5,0,0,1,20.5,1ZM10,2.5a.5.5,0,0,1,.5-.5h3.45l-.992-.878a.5.5,0,1,1,.668-.744l1.551,1.393a1.037,1.037,0,0,1,.005,1.466L13.625,4.624a.5.5,0,1,1-.666-.747L13.943,3H10.5a.5.5,0,0,1-.5-.5Zm-.539,5a1.217,1.217,0,0,1,.319-.726l1.555-1.4A.5.5,0,1,1,12,6.122L11.025,7H14.5a.5.5,0,1,1,0,1H11l1,.876a.5.5,0,0,1-.665.747L9.785,8.242A1.2,1.2,0,0,1,9.46,7.5Zm7.571.825a3.749,3.749,0,0,1,6.936,0,.5.5,0,0,1-.292.644A.52.52,0,0,1,23.5,9a.5.5,0,0,1-.468-.325,2.751,2.751,0,0,0-5.064,0,.5.5,0,1,1-.936-.351ZM2.5,9h3A2.5,2.5,0,0,0,8,6.5v-3A2.5,2.5,0,0,0,5.5,1h-3A2.5,2.5,0,0,0,0,3.5v3A2.5,2.5,0,0,0,2.5,9ZM1,3.5A1.5,1.5,0,0,1,2.5,2h3A1.5,1.5,0,0,1,7,3.5v3A1.5,1.5,0,0,1,5.5,8h-3A1.5,1.5,0,0,1,1,6.5Zm1.5,0A.5.5,0,0,1,3,3H5A.5.5,0,0,1,5,4H3A.5.5,0,0,1,2.5,3.5Zm20.681,8.155a2.519,2.519,0,0,1,.183,3.526l-7.9,8.716a.5.5,0,1,1-.74-.672l7.9-8.713a1.51,1.51,0,0,0-2.247-2.018l-4.509,4.953a2.649,2.649,0,0,1-2.132,1.811L7.56,20A.493.493,0,0,1,7,19.56.5.5,0,0,1,7.441,19l6.161-.737A1.642,1.642,0,0,0,13.357,15H3.5A2.5,2.5,0,0,0,1,17.5v6a.5.5,0,0,1-1,0v-6A3.5,3.5,0,0,1,3.5,14h9.857a2.64,2.64,0,0,1,2.534,1.933l3.742-4.112a2.526,2.526,0,0,1,3.548-.166Z" transform="translate(0.25 0.25)" fill="#fff" stroke="#fff" stroke-width="0.5"/>
</svg>
