<svg xmlns="http://www.w3.org/2000/svg" width="113" height="110.861" viewBox="0 0 113 110.861">
  <g id="Layer_1-2" transform="translate(0 -350.279)">
    <rect id="Rectangle_2" data-name="Rectangle 2" width="113" height="110.861" rx="34" transform="translate(0 350.279)" fill="#006a3e"/>
    <g id="Group_15" data-name="Group 15" transform="translate(16.599 370.257)">
      <g id="Group_26" data-name="Group 26" transform="translate(42.532 0)">
        <path id="Path_4" data-name="Path 4" d="M268.379,156.145c0,2-.032,4,.017,6,.019.746-.112,1.052-.959,1.012-2.032-.095-4.07-.108-6.1-.086-.7.008-.8-.27-.8-.868.023-3.265.015-6.529.015-9.8a10.933,10.933,0,0,0-.032-1.262,2.306,2.306,0,0,0-3.56-1.975,26.349,26.349,0,0,0-5.14,3.638c-.706.563-1.033.736-1.722-.143A40.894,40.894,0,0,0,246.481,149c-.344-.337-.514-.609-.036-1.012,3.05-2.554,6.167-5,10.1-6.074,4.483-1.225,8.264.154,10.511,3.823a9.137,9.137,0,0,1,1.279,4.717c.03,1.895.006,3.792.006,5.688Z" transform="translate(-246.15 -125.521)" fill="#faf8f2"/>
        <path id="Path_5" data-name="Path 5" d="M277.367,72.635a6.592,6.592,0,0,1-6.768,6.683,6.678,6.678,0,0,1-6.879-6.82,6.824,6.824,0,0,1,13.647.137Z" transform="translate(-260.017 -65.76)" fill="#fbf9f3"/>
      </g>
      <g id="Group_27" data-name="Group 27" transform="translate(15.022 0)">
        <path id="Path_3" data-name="Path 3" d="M121.241,156.035c0-1.825-.027-3.65.006-5.473.07-3.794,2.207-7.263,5.172-8.38a11.25,11.25,0,0,1,9.271.7,49.06,49.06,0,0,1,12.361,9.351c.1.1.2.2.3.3.963.851,1.749,1.756,1.123,3.178a3.562,3.562,0,0,1-3.292,2.217,6.293,6.293,0,0,1-4.356-1.564c-2.493-1.987-4.959-4.011-7.434-6.024a8.619,8.619,0,0,0-1.781-1.1c-1.922-.9-3.511.015-3.547,2.135-.053,3.088-.023,6.175-.017,9.263.006,2.54.015,2.531-2.5,2.47-1.4-.034-2.807-.08-4.209-.034-.8.027-1.1-.164-1.071-1.031.067-2,.021-4,.021-6Z" transform="translate(-121.23 -125.525)" fill="#faf8f2"/>
        <path id="Path_6" data-name="Path 6" d="M157.932,72.57a6.757,6.757,0,0,1-6.791,6.837,6.834,6.834,0,0,1-6.8-6.852,6.8,6.8,0,1,1,13.592.015Z" transform="translate(-139.469 -65.76)" fill="#faf8f2"/>
      </g>
      <g id="Group_28" data-name="Group 28" transform="translate(0 46.866)">
        <path id="Subtraction_2" data-name="Subtraction 2" d="M2.071,24.04c-.429,0-.608-.2-.64-.731l0-.055c-.108-1.83-.108-1.83,1.658-2.006l.057-.005a16.372,16.372,0,0,0,2.276-.4,3.413,3.413,0,0,0,1.819-1.2c.31-.381.606-.825.447-1.227a.372.372,0,0,0-.4-.233,2.215,2.215,0,0,0-.3.028l-.012,0a2.262,2.262,0,0,1-.288.026H6.627c-.323-.024-.658-.025-.953-.026h0a7.949,7.949,0,0,1-1.561-.107A4.837,4.837,0,0,1,.6,15.467,6.45,6.45,0,0,1,.625,9.991,5.494,5.494,0,0,1,5.6,6.86a5.811,5.811,0,0,1,2.83.749,4.616,4.616,0,0,1,2.28,3.915,28.7,28.7,0,0,1,.076,3.052.763.763,0,0,0,.152.568.645.645,0,0,0,.485.148c.03,0,.06,0,.092,0,.214-.01.453-.014.753-.014l.544,0c.172,0,.373,0,.571,0,.164,0,.31,0,.448,0,1.356-.032,1.909-.6,1.909-1.945,0-2.122-.01-4.351-.019-6.142V6.94c-.008-1.8-.017-3.656-.018-5.512,0-.173,0-.329,0-.458-.007-.484-.011-.726.109-.848.1-.1.28-.119.645-.119h.258c.114,0,.238,0,.382,0s.291,0,.416,0h.012l.319,0c.4,0,.609.021.726.138.138.139.136.411.131.953V1.1c0,.14,0,.292,0,.46.006,1.547.012,3.242.018,5.332v.456c.006,1.961.012,3.99.022,6.013a2.423,2.423,0,0,0,2.421,2.119,1.784,1.784,0,0,0,.907-.233c.307-.177.272-.453.238-.72l0-.013a1.823,1.823,0,0,1-.019-.222l-.011-1.948v-.13c-.019-3.564-.039-7.25-.118-10.88a1.473,1.473,0,0,1,.26-1.086.828.828,0,0,1,.623-.212,2.532,2.532,0,0,1,.393.035A1.928,1.928,0,0,0,23.758.1,3.456,3.456,0,0,0,24.164.07a1.691,1.691,0,0,1,.22-.015.65.65,0,0,1,.486.162,1.019,1.019,0,0,1,.2.745c-.019,1.691-.008,3.41,0,5.073V6.1l0,.47V6.63q0,.7.007,1.392V9.427l.009,0a11.684,11.684,0,0,1,4.42-2.152,9.218,9.218,0,0,1,1.913-.211,7.2,7.2,0,0,1,2.54.448,5.118,5.118,0,0,1,2.371,1.759,5.064,5.064,0,0,1,.964,2.794c.009.2,0,.414,0,.6a6.262,6.262,0,0,0,.021.873,1.715,1.715,0,0,1-.045.488c-.075.41-.154.834.485,1.029a3.034,3.034,0,0,0,.892.147,2.1,2.1,0,0,0,1.46-.579,4.991,4.991,0,0,0,1.217-2.151l0-.009.038-.1.006-.015c.035-.1.071-.2.108-.292.105-.279.193-.57.278-.851l.009-.031c.072-.244.144-.483.227-.72.78-2.24,2.161-3.283,4.345-3.283.077,0,.142,0,.205,0a4.617,4.617,0,0,1,4.529,3.7,8.609,8.609,0,0,1-.215,4.979,3.741,3.741,0,0,1-3.366,2.6c-.319.031-.632.046-.932.046a7.516,7.516,0,0,1-4.016-1.109,1,1,0,0,0-.519-.193.966.966,0,0,0-.554.233,4.247,4.247,0,0,1-2.456.814,4.178,4.178,0,0,1-2.695-1.019.57.57,0,0,0-.869-.03,5.547,5.547,0,0,1-3.339,1.049H32.1q-.743,0-1.486,0c-2.143,0-4.311.007-6.408.014h-.538l-1.642.005-1.3,0h-.011a4.532,4.532,0,0,1-2.818-.97c-.044-.033-.087-.072-.124-.106l0,0A.524.524,0,0,0,17.447,17a.458.458,0,0,0-.313.178,3.6,3.6,0,0,1-2.766,1.065,7.219,7.219,0,0,1-.745-.041c-.336-.034-.619-.05-.864-.05-1.51,0-2.3.661-2.717,2.283A3.862,3.862,0,0,1,8.3,22.756,8.159,8.159,0,0,1,5.44,23.8a13.942,13.942,0,0,1-2.144.181H3.271c-.356.012-.723.025-1.083.051C2.147,24.038,2.108,24.04,2.071,24.04Zm44.287-14A1.794,1.794,0,0,0,44.713,11.3c-.224.532-.437,1.081-.643,1.611l-.005.013,0,.009c-.184.475-.338.871-.505,1.281-.086.213-.15.48.109.653a4.047,4.047,0,0,0,2.261.7,4.227,4.227,0,0,0,1.251-.194c1.112-.346,1.242-1.364,1.222-2.314-.012-.115-.019-.232-.027-.345l0-.056v-.01a4.96,4.96,0,0,0-.1-.836c-.263-1.074-.834-1.668-1.7-1.766A2.057,2.057,0,0,0,46.358,10.035ZM5.478,9.908a2.251,2.251,0,0,0-2.411,2,2.886,2.886,0,0,0,.347,2.471,2.972,2.972,0,0,0,2.361,1l.139,0a2,2,0,0,0,1.478-.492,1.934,1.934,0,0,0,.459-1.44c0-.122,0-.245,0-.367,0-.258.007-.523-.006-.783-.074-1.552-.658-2.261-1.954-2.371C5.75,9.915,5.61,9.908,5.478,9.908ZM28.94,15.276h0c.277,0,.586,0,1,.007h.047c.291,0,.653.007,1,.007.494,0,.911-.008,1.314-.024a2.341,2.341,0,0,0,1.734-.847,2.082,2.082,0,0,0,.432-1.686,3.033,3.033,0,0,0-1.68-2.282A4.011,4.011,0,0,0,31,10.08c-2.468,0-5.269,1.579-5.993,3.38a1.454,1.454,0,0,0-.027,1.354,1.387,1.387,0,0,0,1.21.467H28.94v0Z" transform="translate(28.461)" fill="#faf8f3"/>
        <path id="Path_8" data-name="Path 8" d="M58.483,289.533c0-1.861.027-3.724-.013-5.583-.019-.816.234-1.191,1.085-1.033a2.873,2.873,0,0,0,.736.04c.822-.067,1.062.287,1.056,1.106-.021,3.547.025,7.094.055,10.641.015,1.73.628,2.36,2.333,2.394.7.013,1.406.015,2.106-.006,1.123-.032,1.593-.485,1.621-1.6.04-1.686.08-3.372.059-5.056-.011-.774.175-1.109,1.043-1.113,1.964-.008,1.977-.061,1.945,1.876q-.041,2.526-.141,5.054a3.743,3.743,0,0,1-3.739,3.766,17.511,17.511,0,0,1-4.3-.116c-.885-.19-1.5-1.05-2.228-1.244-.474-.124-1.14,1.2-2.009,1.248-3.421.2-6.877.712-10.232-.35a4.439,4.439,0,0,1-3.269-4.624c-.008-.805.078-1.61.12-2.417.03-.544.282-.746.858-.778,2.038-.116,2.036-.143,1.867,1.9-.192,2.331.434,3.223,2.727,3.486a38.377,38.377,0,0,0,6.73-.015c1.2-.072,1.665-.74,1.665-1.992q0-2.792,0-5.583h-.07Z" transform="translate(-44.587 -281.823)" fill="#f9f8f3"/>
        <path id="Path_9" data-name="Path 9" d="M74.855,310.874c-.527,0-1.052,0-1.579,0-.4,0-.78.008-.8-.554-.019-.447.105-.805.592-.809.609-.006.514-.348.5-.761a2.682,2.682,0,0,1,3.206-2.94c.457.038.6.2.6.639s-.053.765-.613.719a2.053,2.053,0,0,0-1.2.308c-.615.354-.559.925-.466,1.484.1.58.58.462.991.529.462.076,1.214-.388,1.25.615.019.514-.1.8-.689.761s-1.191-.008-1.787-.008v.015Z" transform="translate(-66.594 -299.906)" fill="#f2f6ed"/>
        <path id="Path_10" data-name="Path 10" d="M147.659,372.289a1.831,1.831,0,0,1,1.77,1.831,1.8,1.8,0,0,1-1.726,1.766,1.8,1.8,0,0,1-.046-3.6Z" transform="translate(-124.574 -352.387)" fill="#f4f6f2"/>
      </g>
    </g>
  </g>
</svg>
