<?xml version="1.0" encoding="UTF-8"?>
<svg id="Layer_2" data-name="Layer 2" xmlns="http://www.w3.org/2000/svg" viewBox="0 0 62.83 71.68">
  <defs>
    <style>
      .cls-1 {
        fill: #006a3e;
      }
    </style>
  </defs>
  <g id="Layer_1-2" data-name="Layer 1">
    <g>
      <path class="cls-1" d="M58.48,34.01c-1.12-1.18-1.95-2.39-2.54-3.71-.56-1.26-2.04-1.83-3.3-1.27-1.26.56-1.83,2.04-1.27,3.3.82,1.85,1.96,3.53,3.48,5.13,2.12,2.23,4.11,7.97,2.15,12.52-1.88,4.37-7.04,6.69-14.94,6.69h-21.32c-7.9,0-13.06-2.31-14.94-6.68-1.95-4.55.04-10.3,2.16-12.53,5.37-5.65,5.34-11.85,5.31-19.03-.01-2.57.61-4.92,1.81-6.82,2.44-3.86,7.95-6.32,14.72-6.58,7.46-.29,14.63,2.11,17.41,5.83.83,1.11,2.39,1.33,3.5.51,1.11-.83,1.33-2.39.51-3.5C47.46,2.82,38.77-.33,29.62.03c-8.54.33-15.38,3.57-18.75,8.9-1.71,2.7-2.61,6-2.59,9.52.04,7.47-.12,11.55-3.93,15.56-3.67,3.86-5.84,11.62-3.13,17.95,1.65,3.85,5.6,8.34,14.94,9.45,2.47,6.15,8.42,10.27,15.23,10.27s12.76-4.18,15.23-10.27c9.38-1.1,13.33-5.6,14.99-9.46,2.71-6.32.54-14.08-3.13-17.94ZM31.39,66.68c-3.9,0-7.39-1.94-9.47-5.01h18.92c-2.08,3.05-5.58,5.01-9.45,5.01Z"/>
      <circle class="cls-1" cx="49.28" cy="20.77" r="7.31" transform="translate(-.26 40.93) rotate(-45)"/>
    </g>
  </g>
</svg>