<svg xmlns="http://www.w3.org/2000/svg" width="22.591" height="21.486" viewBox="0 0 22.591 21.486">
  <g id="svgexport-15_8_" data-name="svgexport-15 (8)" transform="translate(0.25 0.25)">
    <g id="Group_77501" data-name="Group 77501">
      <path id="Path_25244" data-name="Path 25244" d="M20.986,8.836h-3.6a1.1,1.1,0,0,0,.289-.736v-7a1.1,1.1,0,0,0-1.1-1.1h-7a1.1,1.1,0,0,0-.756.3L5.425,2.684a1.1,1.1,0,0,0-.639,1V8.836a1.1,1.1,0,0,0-.756.3L.639,11.52a1.1,1.1,0,0,0-.639,1v7.364a1.1,1.1,0,0,0,1.1,1.1H8.836a1.1,1.1,0,0,0,.736-.287,1.1,1.1,0,0,0,.736.287h7.732a1.1,1.1,0,0,0,.792-.337l2.93-2.93a1.1,1.1,0,0,0,.328-.783v-7A1.11,1.11,0,0,0,20.986,8.836Zm-2.454,2.7a1.091,1.091,0,0,0-.491-.12H14.813l1.841-1.841h4.119Zm-9.7-.12H5.891a.368.368,0,0,1-.368-.368V3.682a.368.368,0,0,1,.368-.368h7.732a.368.368,0,0,1,.368.368v7.364a.366.366,0,0,1-.1.258l-.007.007a.366.366,0,0,1-.256.1Zm5.79-8.186,2.31-2.021V8.1a.36.36,0,0,1-.11.258l-2.1,2.1V3.682a1.091,1.091,0,0,0-.1-.454Zm-.513-.53a1.091,1.091,0,0,0-.491-.12H11.014L13.381.736h2.975ZM9.265.887A.368.368,0,0,0,9.317.842.358.358,0,0,1,9.573.736h2.609L9.815,2.577H6.858ZM4.479,9.723a.368.368,0,0,0,.052-.044.358.358,0,0,1,.256-.106v1.473a1.093,1.093,0,0,0,.068.368H2.072ZM1.1,20.25a.368.368,0,0,1-.368-.368V12.518A.368.368,0,0,1,1.1,12.15H8.836a.368.368,0,0,1,.368.368v7.364a.368.368,0,0,1-.105.258l-.007.006a.366.366,0,0,1-.256.1Zm9.2,0a.368.368,0,0,1-.368-.368V12.518a.368.368,0,0,1,.368-.368h7.732a.368.368,0,0,1,.368.368v7.364a.368.368,0,0,1-.1.252l-.008.006-.005.006a.368.368,0,0,1-.253.1Zm10.935-3.056-2.1,2.1V12.518a1.091,1.091,0,0,0-.1-.454l2.31-2.021v6.893A.36.36,0,0,1,21.244,17.194Z" fill="#fff" stroke="#fff" stroke-width="0.5"/>
      <path id="Path_25245" data-name="Path 25245" d="M11,23H9.523a.736.736,0,0,0-.736.736v.736a.736.736,0,0,0,.736.736H11a.736.736,0,0,0,.736-.736v-.736A.736.736,0,0,0,11,23ZM9.523,24.473v-.736H11v.736ZM15.414,23h-1.1a.368.368,0,0,0,0,.736h1.1a.368.368,0,0,0,0-.736Zm0,1.473h-1.1a.368.368,0,1,0,0,.736h1.1a.368.368,0,0,0,0-.736Zm-9.2,7.364H4.736A.736.736,0,0,0,4,32.573v.736a.736.736,0,0,0,.736.736H6.209a.736.736,0,0,0,.736-.736v-.736A.736.736,0,0,0,6.209,31.836ZM4.736,33.309v-.736H6.209v.736Zm5.891-1.473h-1.1a.368.368,0,1,0,0,.736h1.1a.368.368,0,1,0,0-.736Zm0,1.473h-1.1a.368.368,0,1,0,0,.736h1.1a.368.368,0,1,0,0-.736Zm4.786-1.473H13.941a.736.736,0,0,0-.736.736v.736a.736.736,0,0,0,.736.736h1.473a.736.736,0,0,0,.736-.736v-.736A.736.736,0,0,0,15.414,31.836Zm-1.473,1.473v-.736h1.473v.736Zm5.891-1.473h-1.1a.368.368,0,0,0,0,.736h1.1a.368.368,0,1,0,0-.736Zm0,1.473h-1.1a.368.368,0,0,0,0,.736h1.1a.368.368,0,1,0,0-.736Z" transform="translate(-2.527 -14.532)" fill="#fff" stroke="#fff" stroke-width="0.5"/>
    </g>
  </g>
</svg>
