<?xml version="1.0" encoding="UTF-8"?>
<svg id="Layer_2" data-name="Layer 2" xmlns="http://www.w3.org/2000/svg" viewBox="0 0 64 63.98">
  <defs>
    <style>
      .cls-1 {
        fill: #05683b;
      }
    </style>
  </defs>
  <g id="Layer_1-2" data-name="Layer 1">
    <g>
      <path class="cls-1" d="M57.87,13.16c-.3-.41-.88-.51-1.3-.2-.42.3-.51.88-.2,1.3,4.22,5.78,6.24,12.94,5.68,20.15-1.16,14.93-13.33,26.83-28.3,27.67-7.41.41-14.67-1.88-20.46-6.47l-.4-.32-6.94,2.41,1.57-8.14-.23-.32c-4.05-5.78-5.9-12.59-5.33-19.71C3.1,15.07,14.86,3.23,29.31,1.98c7.24-.63,14.45,1.34,20.28,5.55.42.3,1,.21,1.3-.21.3-.42.21-1-.21-1.3C44.48,1.55,36.83-.55,29.15.12,13.8,1.45,1.31,14.03.1,29.38c-.58,7.42,1.3,14.53,5.44,20.6l-1.65,8.53c-.08.41.07.84.38,1.11s.76.36,1.16.23l7.1-2.47c5.59,4.29,12.44,6.6,19.5,6.6.6,0,1.21-.02,1.81-.05,15.9-.89,28.82-13.52,30.06-29.38.6-7.65-1.54-15.25-6.03-21.39Z"/>
      <path class="cls-1" d="M27.94,46.79c-.71.71-1.07,1.6-1.07,2.65s.36,1.88,1.06,2.61c.71.74,1.6,1.11,2.66,1.11s1.89-.37,2.62-1.1c.73-.73,1.1-1.61,1.1-2.62s-.37-1.95-1.11-2.66c-1.48-1.43-3.87-1.38-5.25.01ZM31.89,50.74c-.78.78-1.93.73-2.62.01-.36-.38-.53-.79-.53-1.31,0-.55.17-.98.52-1.33.36-.36.78-.52,1.33-.52.52,0,.94.17,1.31.53.37.36.54.78.54,1.32,0,.51-.18.93-.55,1.3Z"/>
      <path class="cls-1" d="M38.03,32.97c2.22-1.99,3.72-3.7,4.57-5.25.87-1.57,1.31-3.39,1.31-5.4,0-3.3-1.03-6.03-3.05-8.1-2.33-2.37-5.61-3.57-9.76-3.57-7.81,0-12.18,3.78-13.01,11.25-.1.91.2,1.83.82,2.52.63.7,1.53,1.1,2.46,1.1,1.67,0,3.07-1.28,3.26-2.97.2-1.73.67-3.05,1.41-3.93.96-1.16,2.59-1.74,4.83-1.74,1.9,0,3.39.49,4.53,1.5,1.11.98,1.65,2.25,1.65,3.88,0,2.14-1.31,4.39-3.9,6.7-2.23,2.03-3.64,3.47-4.33,4.4-1.01,1.37-1.61,3.3-1.78,5.74-.07.94.26,1.87.91,2.55.65.69,1.56,1.09,2.51,1.09,1.82,0,3.32-1.41,3.41-3.21.07-1.33.31-2.35.7-2.96.33-.52,1.21-1.58,3.47-3.61ZM32.99,35.58c-.57.89-.9,2.19-.98,3.86-.04.81-.72,1.45-1.55,1.45-.44,0-.85-.18-1.15-.5-.29-.32-.44-.73-.41-1.16.1-1.43.43-3.42,1.42-4.76.6-.82,1.98-2.21,4.08-4.12,3-2.67,4.52-5.39,4.52-8.08,0-2.16-.77-3.94-2.27-5.27-1.48-1.3-3.41-1.97-5.76-1.97-2.82,0-4.92.81-6.25,2.41-.97,1.16-1.59,2.82-1.83,4.91-.09.75-.69,1.32-1.42,1.32-.41,0-.8-.18-1.08-.49-.27-.3-.4-.68-.35-1.08.71-6.45,4.36-9.59,11.16-9.59,3.63,0,6.46,1.02,8.43,3.02,1.7,1.73,2.52,3.96,2.52,6.8,0,1.69-.36,3.2-1.08,4.49-.74,1.34-2.15,2.94-4.18,4.76-1.98,1.78-3.22,3.09-3.8,4Z"/>
      <path class="cls-1" d="M54.16,11.46c.71,0,1.29-.58,1.29-1.29s-.58-1.29-1.29-1.29-1.29.58-1.29,1.29.58,1.29,1.29,1.29ZM54.16,9.6c.31,0,.57.25.57.57s-.26.57-.57.57-.57-.25-.57-.57.26-.57.57-.57Z"/>
    </g>
  </g>
</svg>