<svg xmlns="http://www.w3.org/2000/svg" width="22.679" height="23.67" viewBox="0 0 22.679 23.67">
  <g id="svgexport-15_9_" data-name="svgexport-15 (9)" transform="translate(-2.318 -1.5)">
    <path id="Path_25246" data-name="Path 25246" d="M13.984,2a5.583,5.583,0,1,0,5.583,5.583A5.586,5.586,0,0,0,13.984,2Zm0,1.6A3.988,3.988,0,1,1,10,7.583,3.989,3.989,0,0,1,13.984,3.6ZM4.413,22.736h8.918a.8.8,0,1,1,0,1.6H3.616a.8.8,0,0,1-.8-.8v-1.6A7.178,7.178,0,0,1,10,14.761h3.335a.8.8,0,1,1,0,1.6H10a5.583,5.583,0,0,0-5.583,5.583Zm16.135.488L18.64,24.517a.8.8,0,0,1-1.245-.66V18.485a.8.8,0,0,1,1.394-.53,2.35,2.35,0,0,0,3.52,0,.8.8,0,0,1,1.394.53v5.372a.8.8,0,0,1-1.244.66Zm-1.558-3.2v2.33L20.1,21.6a.8.8,0,0,1,.894,0l1.113.754V20.023a3.952,3.952,0,0,1-3.118,0Z" transform="translate(0 0)" fill="#fff" stroke="#fff" stroke-width="1" fill-rule="evenodd"/>
    <path id="Path_25247" data-name="Path 25247" d="M24.048,15.1A3.947,3.947,0,1,0,28,19.048,3.949,3.949,0,0,0,24.048,15.1Zm0,1.6A2.353,2.353,0,1,1,21.7,19.049,2.352,2.352,0,0,1,24.048,16.7Z" transform="translate(-3.499 -2.652)" fill="#fff" stroke="#fff" stroke-width="1" fill-rule="evenodd"/>
  </g>
</svg>
